<?xml version="1.0" standalone="no"?>
<!DOCTYPE svg PUBLIC "-//W3C//DTD SVG 20010904//EN"
 "http://www.w3.org/TR/2001/REC-SVG-20010904/DTD/svg10.dtd">
<svg version="1.0" xmlns="http://www.w3.org/2000/svg"
 width="144.000000pt" height="144.000000pt" viewBox="0 0 144.000000 144.000000"
 preserveAspectRatio="xMidYMid meet">
<metadata>
Created by potrace 1.11, written by Peter Selinger 2001-2013
</metadata>
<g transform="translate(0.000000,144.000000) scale(0.100000,-0.100000)"
fill="#000000" stroke="none">
<path d="M545 1385 c-5 -2 -36 -11 -69 -20 -32 -9 -56 -18 -53 -21 2 -2 17 0
33 6 39 15 139 21 200 11 l49 -8 -50 -8 c-100 -16 -175 -54 -247 -127 -38 -37
-68 -72 -68 -78 0 -7 12 3 28 22 15 18 36 41 47 50 28 25 114 66 150 72 17 3
44 8 60 11 29 5 28 5 -9 -17 -69 -40 -132 -105 -164 -171 -30 -60 -58 -172
-41 -161 5 3 9 15 9 27 1 33 36 105 72 146 137 157 372 142 536 -34 177 -189
189 -483 27 -628 -41 -37 -124 -68 -188 -72 -118 -5 -233 49 -329 154 l-51 56
31 -46 c69 -103 224 -209 328 -225 62 -9 37 -24 -41 -24 -195 1 -373 123 -468
321 -25 52 -48 111 -52 133 -3 21 -9 36 -12 33 -10 -11 37 -169 72 -239 69
-136 172 -243 300 -309 l80 -41 -49 6 c-90 12 -229 83 -314 160 -35 32 -107
127 -137 180 -83 149 -109 340 -67 489 24 84 13 76 -18 -13 -34 -99 -36 -275
-5 -396 69 -272 265 -495 510 -580 68 -24 96 -28 190 -29 92 0 121 4 175 24
151 55 252 162 315 331 25 68 28 88 29 205 0 145 -5 178 -41 279 -61 172 -153
296 -297 403 -112 83 -262 134 -390 132 -39 0 -75 -2 -81 -4z"/>
<path d="M940 1033 c-39 -15 -40 -61 0 -103 24 -26 35 -31 67 -28 35 3 38 6
41 35 5 51 -64 112 -108 96z"/>
<path d="M769 885 c-38 -20 -45 -67 -18 -121 47 -99 187 -122 204 -35 5 26
-17 86 -43 114 -38 42 -105 62 -143 42z"/>
</g>
</svg>
